<svg width="26" height="26" xmlns="http://www.w3.org/2000/svg">

 <g>
  <title>background</title>
  <rect fill="none" id="canvas_background" height="402" width="582" y="-1" x="-1"/>
 </g>
 <g>
  <title>Layer 1</title>
  <path id="svg_2" fill="#070707" d="m24.25,1l-22.5,0c-0.41406,0 -0.75,0.33594 -0.75,0.75s0.33594,0.75 0.75,0.75l22.5,0c0.41406,0 0.75,-0.33594 0.75,-0.75s-0.33594,-0.75 -0.75,-0.75z"/>
  <path id="svg_3" fill="#0a0a0a" d="m19.15527,4.84473c-0.29297,-0.29297 -0.76757,-0.29297 -1.06054,0l-5.09473,5.09472l-5.09473,-5.09472c-0.29297,-0.29297 -0.76757,-0.29297 -1.06054,0s-0.29297,0.76757 0,1.06054l5.09472,5.09473l-5.09472,5.09473c-0.29297,0.29297 -0.29297,0.76757 0,1.06054l5.625,5.625c0.14648,0.14649 0.33789,0.21973 0.53027,0.21973s0.38379,-0.07324 0.53027,-0.21973l5.625,-5.625c0.29297,-0.29297 0.29297,-0.76757 0,-1.06054l-5.09472,-5.09473l5.09472,-5.09473c0.29297,-0.29297 0.29297,-0.76757 0,-1.06054zm-1.59082,11.78027l-4.56445,4.56445l-4.56445,-4.56445l4.56445,-4.56445l4.56445,4.56445z"/>
 </g>
</svg>